<mxfile host="Electron" agent="Mozilla/5.0 (Windows NT 10.0; Win64; x64) AppleWebKit/537.36 (KHTML, like Gecko) draw.io/24.7.17 Chrome/128.0.6613.36 Electron/32.0.1 Safari/537.36" version="24.7.17">
  <diagram name="Page-1" id="UnIl4REgYdiLxJxf534u">
    <mxGraphModel dx="2711" dy="1104" grid="1" gridSize="10" guides="1" tooltips="1" connect="1" arrows="1" fold="1" page="1" pageScale="1" pageWidth="827" pageHeight="1169" math="0" shadow="0">
      <root>
        <mxCell id="0" />
        <mxCell id="1" parent="0" />
        <mxCell id="NqUrE6B0WoNYXSJN2qYD-1" value="media_files" style="shape=table;startSize=25;container=1;collapsible=0;childLayout=tableLayout;fixedRows=1;rowLines=1;fontStyle=1;align=center;resizeLast=1;fontSize=16;" parent="1" vertex="1">
          <mxGeometry x="-230" y="329" width="500" height="333" as="geometry" />
        </mxCell>
        <mxCell id="NqUrE6B0WoNYXSJN2qYD-2" style="shape=tableRow;horizontal=0;startSize=0;swimlaneHead=0;swimlaneBody=0;fillColor=none;collapsible=0;dropTarget=0;points=[[0,0.5],[1,0.5]];portConstraint=eastwest;top=0;left=0;right=0;bottom=0;fontSize=16;" parent="NqUrE6B0WoNYXSJN2qYD-1" vertex="1">
          <mxGeometry y="25" width="500" height="22" as="geometry" />
        </mxCell>
        <mxCell id="NqUrE6B0WoNYXSJN2qYD-3" value="ObjectId" style="shape=partialRectangle;connectable=0;fillColor=none;top=0;left=0;bottom=0;right=0;align=left;spacingLeft=2;overflow=hidden;fontSize=16;" parent="NqUrE6B0WoNYXSJN2qYD-2" vertex="1">
          <mxGeometry width="90" height="22" as="geometry">
            <mxRectangle width="90" height="22" as="alternateBounds" />
          </mxGeometry>
        </mxCell>
        <mxCell id="NqUrE6B0WoNYXSJN2qYD-4" value="_id" style="shape=partialRectangle;connectable=0;fillColor=none;top=0;left=0;bottom=0;right=0;align=left;spacingLeft=2;overflow=hidden;fontSize=16;" parent="NqUrE6B0WoNYXSJN2qYD-2" vertex="1">
          <mxGeometry x="90" width="150" height="22" as="geometry">
            <mxRectangle width="150" height="22" as="alternateBounds" />
          </mxGeometry>
        </mxCell>
        <mxCell id="fLlnK0QQQw2lZY6XCiY6-12" value="PK" style="shape=partialRectangle;connectable=0;fillColor=none;top=0;left=0;bottom=0;right=0;align=left;spacingLeft=2;overflow=hidden;fontSize=16;" vertex="1" parent="NqUrE6B0WoNYXSJN2qYD-2">
          <mxGeometry x="240" width="40" height="22" as="geometry">
            <mxRectangle width="40" height="22" as="alternateBounds" />
          </mxGeometry>
        </mxCell>
        <mxCell id="NqUrE6B0WoNYXSJN2qYD-5" value="MongoDB預設主鍵" style="shape=partialRectangle;connectable=0;fillColor=none;top=0;left=0;bottom=0;right=0;align=left;spacingLeft=2;overflow=hidden;fontSize=16;" parent="NqUrE6B0WoNYXSJN2qYD-2" vertex="1">
          <mxGeometry x="280" width="220" height="22" as="geometry">
            <mxRectangle width="220" height="22" as="alternateBounds" />
          </mxGeometry>
        </mxCell>
        <mxCell id="NqUrE6B0WoNYXSJN2qYD-6" style="shape=tableRow;horizontal=0;startSize=0;swimlaneHead=0;swimlaneBody=0;fillColor=none;collapsible=0;dropTarget=0;points=[[0,0.5],[1,0.5]];portConstraint=eastwest;top=0;left=0;right=0;bottom=0;fontSize=16;" parent="NqUrE6B0WoNYXSJN2qYD-1" vertex="1">
          <mxGeometry y="47" width="500" height="22" as="geometry" />
        </mxCell>
        <mxCell id="NqUrE6B0WoNYXSJN2qYD-7" value="UUID" style="shape=partialRectangle;connectable=0;fillColor=none;top=0;left=0;bottom=0;right=0;align=left;spacingLeft=2;overflow=hidden;fontSize=16;" parent="NqUrE6B0WoNYXSJN2qYD-6" vertex="1">
          <mxGeometry width="90" height="22" as="geometry">
            <mxRectangle width="90" height="22" as="alternateBounds" />
          </mxGeometry>
        </mxCell>
        <mxCell id="NqUrE6B0WoNYXSJN2qYD-8" value="file_id" style="shape=partialRectangle;connectable=0;fillColor=none;top=0;left=0;bottom=0;right=0;align=left;spacingLeft=2;overflow=hidden;fontSize=16;" parent="NqUrE6B0WoNYXSJN2qYD-6" vertex="1">
          <mxGeometry x="90" width="150" height="22" as="geometry">
            <mxRectangle width="150" height="22" as="alternateBounds" />
          </mxGeometry>
        </mxCell>
        <mxCell id="fLlnK0QQQw2lZY6XCiY6-13" value="UK" style="shape=partialRectangle;connectable=0;fillColor=none;top=0;left=0;bottom=0;right=0;align=left;spacingLeft=2;overflow=hidden;fontSize=16;" vertex="1" parent="NqUrE6B0WoNYXSJN2qYD-6">
          <mxGeometry x="240" width="40" height="22" as="geometry">
            <mxRectangle width="40" height="22" as="alternateBounds" />
          </mxGeometry>
        </mxCell>
        <mxCell id="NqUrE6B0WoNYXSJN2qYD-9" value="檔案全域唯一識別碼" style="shape=partialRectangle;connectable=0;fillColor=none;top=0;left=0;bottom=0;right=0;align=left;spacingLeft=2;overflow=hidden;fontSize=16;" parent="NqUrE6B0WoNYXSJN2qYD-6" vertex="1">
          <mxGeometry x="280" width="220" height="22" as="geometry">
            <mxRectangle width="220" height="22" as="alternateBounds" />
          </mxGeometry>
        </mxCell>
        <mxCell id="NqUrE6B0WoNYXSJN2qYD-10" style="shape=tableRow;horizontal=0;startSize=0;swimlaneHead=0;swimlaneBody=0;fillColor=none;collapsible=0;dropTarget=0;points=[[0,0.5],[1,0.5]];portConstraint=eastwest;top=0;left=0;right=0;bottom=0;fontSize=16;" parent="NqUrE6B0WoNYXSJN2qYD-1" vertex="1">
          <mxGeometry y="69" width="500" height="22" as="geometry" />
        </mxCell>
        <mxCell id="NqUrE6B0WoNYXSJN2qYD-11" value="String" style="shape=partialRectangle;connectable=0;fillColor=none;top=0;left=0;bottom=0;right=0;align=left;spacingLeft=2;overflow=hidden;fontSize=16;" parent="NqUrE6B0WoNYXSJN2qYD-10" vertex="1">
          <mxGeometry width="90" height="22" as="geometry">
            <mxRectangle width="90" height="22" as="alternateBounds" />
          </mxGeometry>
        </mxCell>
        <mxCell id="NqUrE6B0WoNYXSJN2qYD-12" value="file_type" style="shape=partialRectangle;connectable=0;fillColor=none;top=0;left=0;bottom=0;right=0;align=left;spacingLeft=2;overflow=hidden;fontSize=16;" parent="NqUrE6B0WoNYXSJN2qYD-10" vertex="1">
          <mxGeometry x="90" width="150" height="22" as="geometry">
            <mxRectangle width="150" height="22" as="alternateBounds" />
          </mxGeometry>
        </mxCell>
        <mxCell id="fLlnK0QQQw2lZY6XCiY6-14" style="shape=partialRectangle;connectable=0;fillColor=none;top=0;left=0;bottom=0;right=0;align=left;spacingLeft=2;overflow=hidden;fontSize=16;" vertex="1" parent="NqUrE6B0WoNYXSJN2qYD-10">
          <mxGeometry x="240" width="40" height="22" as="geometry">
            <mxRectangle width="40" height="22" as="alternateBounds" />
          </mxGeometry>
        </mxCell>
        <mxCell id="NqUrE6B0WoNYXSJN2qYD-13" value="檔案類型audio_image_video" style="shape=partialRectangle;connectable=0;fillColor=none;top=0;left=0;bottom=0;right=0;align=left;spacingLeft=2;overflow=hidden;fontSize=16;" parent="NqUrE6B0WoNYXSJN2qYD-10" vertex="1">
          <mxGeometry x="280" width="220" height="22" as="geometry">
            <mxRectangle width="220" height="22" as="alternateBounds" />
          </mxGeometry>
        </mxCell>
        <mxCell id="NqUrE6B0WoNYXSJN2qYD-14" style="shape=tableRow;horizontal=0;startSize=0;swimlaneHead=0;swimlaneBody=0;fillColor=none;collapsible=0;dropTarget=0;points=[[0,0.5],[1,0.5]];portConstraint=eastwest;top=0;left=0;right=0;bottom=0;fontSize=16;" parent="NqUrE6B0WoNYXSJN2qYD-1" vertex="1">
          <mxGeometry y="91" width="500" height="22" as="geometry" />
        </mxCell>
        <mxCell id="NqUrE6B0WoNYXSJN2qYD-15" value="String" style="shape=partialRectangle;connectable=0;fillColor=none;top=0;left=0;bottom=0;right=0;align=left;spacingLeft=2;overflow=hidden;fontSize=16;" parent="NqUrE6B0WoNYXSJN2qYD-14" vertex="1">
          <mxGeometry width="90" height="22" as="geometry">
            <mxRectangle width="90" height="22" as="alternateBounds" />
          </mxGeometry>
        </mxCell>
        <mxCell id="NqUrE6B0WoNYXSJN2qYD-16" value="original_filename" style="shape=partialRectangle;connectable=0;fillColor=none;top=0;left=0;bottom=0;right=0;align=left;spacingLeft=2;overflow=hidden;fontSize=16;" parent="NqUrE6B0WoNYXSJN2qYD-14" vertex="1">
          <mxGeometry x="90" width="150" height="22" as="geometry">
            <mxRectangle width="150" height="22" as="alternateBounds" />
          </mxGeometry>
        </mxCell>
        <mxCell id="fLlnK0QQQw2lZY6XCiY6-15" style="shape=partialRectangle;connectable=0;fillColor=none;top=0;left=0;bottom=0;right=0;align=left;spacingLeft=2;overflow=hidden;fontSize=16;" vertex="1" parent="NqUrE6B0WoNYXSJN2qYD-14">
          <mxGeometry x="240" width="40" height="22" as="geometry">
            <mxRectangle width="40" height="22" as="alternateBounds" />
          </mxGeometry>
        </mxCell>
        <mxCell id="NqUrE6B0WoNYXSJN2qYD-17" value="原始檔案名稱" style="shape=partialRectangle;connectable=0;fillColor=none;top=0;left=0;bottom=0;right=0;align=left;spacingLeft=2;overflow=hidden;fontSize=16;" parent="NqUrE6B0WoNYXSJN2qYD-14" vertex="1">
          <mxGeometry x="280" width="220" height="22" as="geometry">
            <mxRectangle width="220" height="22" as="alternateBounds" />
          </mxGeometry>
        </mxCell>
        <mxCell id="NqUrE6B0WoNYXSJN2qYD-18" style="shape=tableRow;horizontal=0;startSize=0;swimlaneHead=0;swimlaneBody=0;fillColor=none;collapsible=0;dropTarget=0;points=[[0,0.5],[1,0.5]];portConstraint=eastwest;top=0;left=0;right=0;bottom=0;fontSize=16;" parent="NqUrE6B0WoNYXSJN2qYD-1" vertex="1">
          <mxGeometry y="113" width="500" height="22" as="geometry" />
        </mxCell>
        <mxCell id="NqUrE6B0WoNYXSJN2qYD-19" value="String" style="shape=partialRectangle;connectable=0;fillColor=none;top=0;left=0;bottom=0;right=0;align=left;spacingLeft=2;overflow=hidden;fontSize=16;" parent="NqUrE6B0WoNYXSJN2qYD-18" vertex="1">
          <mxGeometry width="90" height="22" as="geometry">
            <mxRectangle width="90" height="22" as="alternateBounds" />
          </mxGeometry>
        </mxCell>
        <mxCell id="NqUrE6B0WoNYXSJN2qYD-20" value="storage_path" style="shape=partialRectangle;connectable=0;fillColor=none;top=0;left=0;bottom=0;right=0;align=left;spacingLeft=2;overflow=hidden;fontSize=16;" parent="NqUrE6B0WoNYXSJN2qYD-18" vertex="1">
          <mxGeometry x="90" width="150" height="22" as="geometry">
            <mxRectangle width="150" height="22" as="alternateBounds" />
          </mxGeometry>
        </mxCell>
        <mxCell id="fLlnK0QQQw2lZY6XCiY6-16" style="shape=partialRectangle;connectable=0;fillColor=none;top=0;left=0;bottom=0;right=0;align=left;spacingLeft=2;overflow=hidden;fontSize=16;" vertex="1" parent="NqUrE6B0WoNYXSJN2qYD-18">
          <mxGeometry x="240" width="40" height="22" as="geometry">
            <mxRectangle width="40" height="22" as="alternateBounds" />
          </mxGeometry>
        </mxCell>
        <mxCell id="NqUrE6B0WoNYXSJN2qYD-21" value="儲存路徑" style="shape=partialRectangle;connectable=0;fillColor=none;top=0;left=0;bottom=0;right=0;align=left;spacingLeft=2;overflow=hidden;fontSize=16;" parent="NqUrE6B0WoNYXSJN2qYD-18" vertex="1">
          <mxGeometry x="280" width="220" height="22" as="geometry">
            <mxRectangle width="220" height="22" as="alternateBounds" />
          </mxGeometry>
        </mxCell>
        <mxCell id="NqUrE6B0WoNYXSJN2qYD-22" style="shape=tableRow;horizontal=0;startSize=0;swimlaneHead=0;swimlaneBody=0;fillColor=none;collapsible=0;dropTarget=0;points=[[0,0.5],[1,0.5]];portConstraint=eastwest;top=0;left=0;right=0;bottom=0;fontSize=16;" parent="NqUrE6B0WoNYXSJN2qYD-1" vertex="1">
          <mxGeometry y="135" width="500" height="22" as="geometry" />
        </mxCell>
        <mxCell id="NqUrE6B0WoNYXSJN2qYD-23" value="Number" style="shape=partialRectangle;connectable=0;fillColor=none;top=0;left=0;bottom=0;right=0;align=left;spacingLeft=2;overflow=hidden;fontSize=16;" parent="NqUrE6B0WoNYXSJN2qYD-22" vertex="1">
          <mxGeometry width="90" height="22" as="geometry">
            <mxRectangle width="90" height="22" as="alternateBounds" />
          </mxGeometry>
        </mxCell>
        <mxCell id="NqUrE6B0WoNYXSJN2qYD-24" value="file_size" style="shape=partialRectangle;connectable=0;fillColor=none;top=0;left=0;bottom=0;right=0;align=left;spacingLeft=2;overflow=hidden;fontSize=16;" parent="NqUrE6B0WoNYXSJN2qYD-22" vertex="1">
          <mxGeometry x="90" width="150" height="22" as="geometry">
            <mxRectangle width="150" height="22" as="alternateBounds" />
          </mxGeometry>
        </mxCell>
        <mxCell id="fLlnK0QQQw2lZY6XCiY6-17" style="shape=partialRectangle;connectable=0;fillColor=none;top=0;left=0;bottom=0;right=0;align=left;spacingLeft=2;overflow=hidden;fontSize=16;" vertex="1" parent="NqUrE6B0WoNYXSJN2qYD-22">
          <mxGeometry x="240" width="40" height="22" as="geometry">
            <mxRectangle width="40" height="22" as="alternateBounds" />
          </mxGeometry>
        </mxCell>
        <mxCell id="NqUrE6B0WoNYXSJN2qYD-25" value="檔案大小位元組" style="shape=partialRectangle;connectable=0;fillColor=none;top=0;left=0;bottom=0;right=0;align=left;spacingLeft=2;overflow=hidden;fontSize=16;" parent="NqUrE6B0WoNYXSJN2qYD-22" vertex="1">
          <mxGeometry x="280" width="220" height="22" as="geometry">
            <mxRectangle width="220" height="22" as="alternateBounds" />
          </mxGeometry>
        </mxCell>
        <mxCell id="NqUrE6B0WoNYXSJN2qYD-26" style="shape=tableRow;horizontal=0;startSize=0;swimlaneHead=0;swimlaneBody=0;fillColor=none;collapsible=0;dropTarget=0;points=[[0,0.5],[1,0.5]];portConstraint=eastwest;top=0;left=0;right=0;bottom=0;fontSize=16;" parent="NqUrE6B0WoNYXSJN2qYD-1" vertex="1">
          <mxGeometry y="157" width="500" height="22" as="geometry" />
        </mxCell>
        <mxCell id="NqUrE6B0WoNYXSJN2qYD-27" value="String" style="shape=partialRectangle;connectable=0;fillColor=none;top=0;left=0;bottom=0;right=0;align=left;spacingLeft=2;overflow=hidden;fontSize=16;" parent="NqUrE6B0WoNYXSJN2qYD-26" vertex="1">
          <mxGeometry width="90" height="22" as="geometry">
            <mxRectangle width="90" height="22" as="alternateBounds" />
          </mxGeometry>
        </mxCell>
        <mxCell id="NqUrE6B0WoNYXSJN2qYD-28" value="mime_type" style="shape=partialRectangle;connectable=0;fillColor=none;top=0;left=0;bottom=0;right=0;align=left;spacingLeft=2;overflow=hidden;fontSize=16;" parent="NqUrE6B0WoNYXSJN2qYD-26" vertex="1">
          <mxGeometry x="90" width="150" height="22" as="geometry">
            <mxRectangle width="150" height="22" as="alternateBounds" />
          </mxGeometry>
        </mxCell>
        <mxCell id="fLlnK0QQQw2lZY6XCiY6-18" style="shape=partialRectangle;connectable=0;fillColor=none;top=0;left=0;bottom=0;right=0;align=left;spacingLeft=2;overflow=hidden;fontSize=16;" vertex="1" parent="NqUrE6B0WoNYXSJN2qYD-26">
          <mxGeometry x="240" width="40" height="22" as="geometry">
            <mxRectangle width="40" height="22" as="alternateBounds" />
          </mxGeometry>
        </mxCell>
        <mxCell id="NqUrE6B0WoNYXSJN2qYD-29" value="MIME類型" style="shape=partialRectangle;connectable=0;fillColor=none;top=0;left=0;bottom=0;right=0;align=left;spacingLeft=2;overflow=hidden;fontSize=16;" parent="NqUrE6B0WoNYXSJN2qYD-26" vertex="1">
          <mxGeometry x="280" width="220" height="22" as="geometry">
            <mxRectangle width="220" height="22" as="alternateBounds" />
          </mxGeometry>
        </mxCell>
        <mxCell id="NqUrE6B0WoNYXSJN2qYD-30" style="shape=tableRow;horizontal=0;startSize=0;swimlaneHead=0;swimlaneBody=0;fillColor=none;collapsible=0;dropTarget=0;points=[[0,0.5],[1,0.5]];portConstraint=eastwest;top=0;left=0;right=0;bottom=0;fontSize=16;" parent="NqUrE6B0WoNYXSJN2qYD-1" vertex="1">
          <mxGeometry y="179" width="500" height="22" as="geometry" />
        </mxCell>
        <mxCell id="NqUrE6B0WoNYXSJN2qYD-31" value="Number" style="shape=partialRectangle;connectable=0;fillColor=none;top=0;left=0;bottom=0;right=0;align=left;spacingLeft=2;overflow=hidden;fontSize=16;" parent="NqUrE6B0WoNYXSJN2qYD-30" vertex="1">
          <mxGeometry width="90" height="22" as="geometry">
            <mxRectangle width="90" height="22" as="alternateBounds" />
          </mxGeometry>
        </mxCell>
        <mxCell id="NqUrE6B0WoNYXSJN2qYD-32" value="duration" style="shape=partialRectangle;connectable=0;fillColor=none;top=0;left=0;bottom=0;right=0;align=left;spacingLeft=2;overflow=hidden;fontSize=16;" parent="NqUrE6B0WoNYXSJN2qYD-30" vertex="1">
          <mxGeometry x="90" width="150" height="22" as="geometry">
            <mxRectangle width="150" height="22" as="alternateBounds" />
          </mxGeometry>
        </mxCell>
        <mxCell id="fLlnK0QQQw2lZY6XCiY6-19" style="shape=partialRectangle;connectable=0;fillColor=none;top=0;left=0;bottom=0;right=0;align=left;spacingLeft=2;overflow=hidden;fontSize=16;" vertex="1" parent="NqUrE6B0WoNYXSJN2qYD-30">
          <mxGeometry x="240" width="40" height="22" as="geometry">
            <mxRectangle width="40" height="22" as="alternateBounds" />
          </mxGeometry>
        </mxCell>
        <mxCell id="NqUrE6B0WoNYXSJN2qYD-33" value="音頻視頻長度秒" style="shape=partialRectangle;connectable=0;fillColor=none;top=0;left=0;bottom=0;right=0;align=left;spacingLeft=2;overflow=hidden;fontSize=16;" parent="NqUrE6B0WoNYXSJN2qYD-30" vertex="1">
          <mxGeometry x="280" width="220" height="22" as="geometry">
            <mxRectangle width="220" height="22" as="alternateBounds" />
          </mxGeometry>
        </mxCell>
        <mxCell id="NqUrE6B0WoNYXSJN2qYD-34" style="shape=tableRow;horizontal=0;startSize=0;swimlaneHead=0;swimlaneBody=0;fillColor=none;collapsible=0;dropTarget=0;points=[[0,0.5],[1,0.5]];portConstraint=eastwest;top=0;left=0;right=0;bottom=0;fontSize=16;" parent="NqUrE6B0WoNYXSJN2qYD-1" vertex="1">
          <mxGeometry y="201" width="500" height="22" as="geometry" />
        </mxCell>
        <mxCell id="NqUrE6B0WoNYXSJN2qYD-35" value="Object" style="shape=partialRectangle;connectable=0;fillColor=none;top=0;left=0;bottom=0;right=0;align=left;spacingLeft=2;overflow=hidden;fontSize=16;" parent="NqUrE6B0WoNYXSJN2qYD-34" vertex="1">
          <mxGeometry width="90" height="22" as="geometry">
            <mxRectangle width="90" height="22" as="alternateBounds" />
          </mxGeometry>
        </mxCell>
        <mxCell id="NqUrE6B0WoNYXSJN2qYD-36" value="related_content" style="shape=partialRectangle;connectable=0;fillColor=none;top=0;left=0;bottom=0;right=0;align=left;spacingLeft=2;overflow=hidden;fontSize=16;" parent="NqUrE6B0WoNYXSJN2qYD-34" vertex="1">
          <mxGeometry x="90" width="150" height="22" as="geometry">
            <mxRectangle width="150" height="22" as="alternateBounds" />
          </mxGeometry>
        </mxCell>
        <mxCell id="fLlnK0QQQw2lZY6XCiY6-20" style="shape=partialRectangle;connectable=0;fillColor=none;top=0;left=0;bottom=0;right=0;align=left;spacingLeft=2;overflow=hidden;fontSize=16;" vertex="1" parent="NqUrE6B0WoNYXSJN2qYD-34">
          <mxGeometry x="240" width="40" height="22" as="geometry">
            <mxRectangle width="40" height="22" as="alternateBounds" />
          </mxGeometry>
        </mxCell>
        <mxCell id="NqUrE6B0WoNYXSJN2qYD-37" value="關聯內容物件" style="shape=partialRectangle;connectable=0;fillColor=none;top=0;left=0;bottom=0;right=0;align=left;spacingLeft=2;overflow=hidden;fontSize=16;" parent="NqUrE6B0WoNYXSJN2qYD-34" vertex="1">
          <mxGeometry x="280" width="220" height="22" as="geometry">
            <mxRectangle width="220" height="22" as="alternateBounds" />
          </mxGeometry>
        </mxCell>
        <mxCell id="NqUrE6B0WoNYXSJN2qYD-38" style="shape=tableRow;horizontal=0;startSize=0;swimlaneHead=0;swimlaneBody=0;fillColor=none;collapsible=0;dropTarget=0;points=[[0,0.5],[1,0.5]];portConstraint=eastwest;top=0;left=0;right=0;bottom=0;fontSize=16;" parent="NqUrE6B0WoNYXSJN2qYD-1" vertex="1">
          <mxGeometry y="223" width="500" height="22" as="geometry" />
        </mxCell>
        <mxCell id="NqUrE6B0WoNYXSJN2qYD-39" value="Object" style="shape=partialRectangle;connectable=0;fillColor=none;top=0;left=0;bottom=0;right=0;align=left;spacingLeft=2;overflow=hidden;fontSize=16;" parent="NqUrE6B0WoNYXSJN2qYD-38" vertex="1">
          <mxGeometry width="90" height="22" as="geometry">
            <mxRectangle width="90" height="22" as="alternateBounds" />
          </mxGeometry>
        </mxCell>
        <mxCell id="NqUrE6B0WoNYXSJN2qYD-40" value="metadata" style="shape=partialRectangle;connectable=0;fillColor=none;top=0;left=0;bottom=0;right=0;align=left;spacingLeft=2;overflow=hidden;fontSize=16;" parent="NqUrE6B0WoNYXSJN2qYD-38" vertex="1">
          <mxGeometry x="90" width="150" height="22" as="geometry">
            <mxRectangle width="150" height="22" as="alternateBounds" />
          </mxGeometry>
        </mxCell>
        <mxCell id="fLlnK0QQQw2lZY6XCiY6-21" style="shape=partialRectangle;connectable=0;fillColor=none;top=0;left=0;bottom=0;right=0;align=left;spacingLeft=2;overflow=hidden;fontSize=16;" vertex="1" parent="NqUrE6B0WoNYXSJN2qYD-38">
          <mxGeometry x="240" width="40" height="22" as="geometry">
            <mxRectangle width="40" height="22" as="alternateBounds" />
          </mxGeometry>
        </mxCell>
        <mxCell id="NqUrE6B0WoNYXSJN2qYD-41" value="檔案元數據物件" style="shape=partialRectangle;connectable=0;fillColor=none;top=0;left=0;bottom=0;right=0;align=left;spacingLeft=2;overflow=hidden;fontSize=16;" parent="NqUrE6B0WoNYXSJN2qYD-38" vertex="1">
          <mxGeometry x="280" width="220" height="22" as="geometry">
            <mxRectangle width="220" height="22" as="alternateBounds" />
          </mxGeometry>
        </mxCell>
        <mxCell id="NqUrE6B0WoNYXSJN2qYD-42" style="shape=tableRow;horizontal=0;startSize=0;swimlaneHead=0;swimlaneBody=0;fillColor=none;collapsible=0;dropTarget=0;points=[[0,0.5],[1,0.5]];portConstraint=eastwest;top=0;left=0;right=0;bottom=0;fontSize=16;" parent="NqUrE6B0WoNYXSJN2qYD-1" vertex="1">
          <mxGeometry y="245" width="500" height="22" as="geometry" />
        </mxCell>
        <mxCell id="NqUrE6B0WoNYXSJN2qYD-43" value="Object" style="shape=partialRectangle;connectable=0;fillColor=none;top=0;left=0;bottom=0;right=0;align=left;spacingLeft=2;overflow=hidden;fontSize=16;" parent="NqUrE6B0WoNYXSJN2qYD-42" vertex="1">
          <mxGeometry width="90" height="22" as="geometry">
            <mxRectangle width="90" height="22" as="alternateBounds" />
          </mxGeometry>
        </mxCell>
        <mxCell id="NqUrE6B0WoNYXSJN2qYD-44" value="access_control" style="shape=partialRectangle;connectable=0;fillColor=none;top=0;left=0;bottom=0;right=0;align=left;spacingLeft=2;overflow=hidden;fontSize=16;" parent="NqUrE6B0WoNYXSJN2qYD-42" vertex="1">
          <mxGeometry x="90" width="150" height="22" as="geometry">
            <mxRectangle width="150" height="22" as="alternateBounds" />
          </mxGeometry>
        </mxCell>
        <mxCell id="fLlnK0QQQw2lZY6XCiY6-22" style="shape=partialRectangle;connectable=0;fillColor=none;top=0;left=0;bottom=0;right=0;align=left;spacingLeft=2;overflow=hidden;fontSize=16;" vertex="1" parent="NqUrE6B0WoNYXSJN2qYD-42">
          <mxGeometry x="240" width="40" height="22" as="geometry">
            <mxRectangle width="40" height="22" as="alternateBounds" />
          </mxGeometry>
        </mxCell>
        <mxCell id="NqUrE6B0WoNYXSJN2qYD-45" value="存取控制物件" style="shape=partialRectangle;connectable=0;fillColor=none;top=0;left=0;bottom=0;right=0;align=left;spacingLeft=2;overflow=hidden;fontSize=16;" parent="NqUrE6B0WoNYXSJN2qYD-42" vertex="1">
          <mxGeometry x="280" width="220" height="22" as="geometry">
            <mxRectangle width="220" height="22" as="alternateBounds" />
          </mxGeometry>
        </mxCell>
        <mxCell id="NqUrE6B0WoNYXSJN2qYD-46" style="shape=tableRow;horizontal=0;startSize=0;swimlaneHead=0;swimlaneBody=0;fillColor=none;collapsible=0;dropTarget=0;points=[[0,0.5],[1,0.5]];portConstraint=eastwest;top=0;left=0;right=0;bottom=0;fontSize=16;" parent="NqUrE6B0WoNYXSJN2qYD-1" vertex="1">
          <mxGeometry y="267" width="500" height="22" as="geometry" />
        </mxCell>
        <mxCell id="NqUrE6B0WoNYXSJN2qYD-47" value="Object" style="shape=partialRectangle;connectable=0;fillColor=none;top=0;left=0;bottom=0;right=0;align=left;spacingLeft=2;overflow=hidden;fontSize=16;" parent="NqUrE6B0WoNYXSJN2qYD-46" vertex="1">
          <mxGeometry width="90" height="22" as="geometry">
            <mxRectangle width="90" height="22" as="alternateBounds" />
          </mxGeometry>
        </mxCell>
        <mxCell id="NqUrE6B0WoNYXSJN2qYD-48" value="usage_stats" style="shape=partialRectangle;connectable=0;fillColor=none;top=0;left=0;bottom=0;right=0;align=left;spacingLeft=2;overflow=hidden;fontSize=16;" parent="NqUrE6B0WoNYXSJN2qYD-46" vertex="1">
          <mxGeometry x="90" width="150" height="22" as="geometry">
            <mxRectangle width="150" height="22" as="alternateBounds" />
          </mxGeometry>
        </mxCell>
        <mxCell id="fLlnK0QQQw2lZY6XCiY6-23" style="shape=partialRectangle;connectable=0;fillColor=none;top=0;left=0;bottom=0;right=0;align=left;spacingLeft=2;overflow=hidden;fontSize=16;" vertex="1" parent="NqUrE6B0WoNYXSJN2qYD-46">
          <mxGeometry x="240" width="40" height="22" as="geometry">
            <mxRectangle width="40" height="22" as="alternateBounds" />
          </mxGeometry>
        </mxCell>
        <mxCell id="NqUrE6B0WoNYXSJN2qYD-49" value="使用統計物件" style="shape=partialRectangle;connectable=0;fillColor=none;top=0;left=0;bottom=0;right=0;align=left;spacingLeft=2;overflow=hidden;fontSize=16;" parent="NqUrE6B0WoNYXSJN2qYD-46" vertex="1">
          <mxGeometry x="280" width="220" height="22" as="geometry">
            <mxRectangle width="220" height="22" as="alternateBounds" />
          </mxGeometry>
        </mxCell>
        <mxCell id="NqUrE6B0WoNYXSJN2qYD-50" style="shape=tableRow;horizontal=0;startSize=0;swimlaneHead=0;swimlaneBody=0;fillColor=none;collapsible=0;dropTarget=0;points=[[0,0.5],[1,0.5]];portConstraint=eastwest;top=0;left=0;right=0;bottom=0;fontSize=16;" parent="NqUrE6B0WoNYXSJN2qYD-1" vertex="1">
          <mxGeometry y="289" width="500" height="22" as="geometry" />
        </mxCell>
        <mxCell id="NqUrE6B0WoNYXSJN2qYD-51" value="Date" style="shape=partialRectangle;connectable=0;fillColor=none;top=0;left=0;bottom=0;right=0;align=left;spacingLeft=2;overflow=hidden;fontSize=16;" parent="NqUrE6B0WoNYXSJN2qYD-50" vertex="1">
          <mxGeometry width="90" height="22" as="geometry">
            <mxRectangle width="90" height="22" as="alternateBounds" />
          </mxGeometry>
        </mxCell>
        <mxCell id="NqUrE6B0WoNYXSJN2qYD-52" value="created_at" style="shape=partialRectangle;connectable=0;fillColor=none;top=0;left=0;bottom=0;right=0;align=left;spacingLeft=2;overflow=hidden;fontSize=16;" parent="NqUrE6B0WoNYXSJN2qYD-50" vertex="1">
          <mxGeometry x="90" width="150" height="22" as="geometry">
            <mxRectangle width="150" height="22" as="alternateBounds" />
          </mxGeometry>
        </mxCell>
        <mxCell id="fLlnK0QQQw2lZY6XCiY6-24" style="shape=partialRectangle;connectable=0;fillColor=none;top=0;left=0;bottom=0;right=0;align=left;spacingLeft=2;overflow=hidden;fontSize=16;" vertex="1" parent="NqUrE6B0WoNYXSJN2qYD-50">
          <mxGeometry x="240" width="40" height="22" as="geometry">
            <mxRectangle width="40" height="22" as="alternateBounds" />
          </mxGeometry>
        </mxCell>
        <mxCell id="NqUrE6B0WoNYXSJN2qYD-53" value="創建時間" style="shape=partialRectangle;connectable=0;fillColor=none;top=0;left=0;bottom=0;right=0;align=left;spacingLeft=2;overflow=hidden;fontSize=16;" parent="NqUrE6B0WoNYXSJN2qYD-50" vertex="1">
          <mxGeometry x="280" width="220" height="22" as="geometry">
            <mxRectangle width="220" height="22" as="alternateBounds" />
          </mxGeometry>
        </mxCell>
        <mxCell id="NqUrE6B0WoNYXSJN2qYD-54" style="shape=tableRow;horizontal=0;startSize=0;swimlaneHead=0;swimlaneBody=0;fillColor=none;collapsible=0;dropTarget=0;points=[[0,0.5],[1,0.5]];portConstraint=eastwest;top=0;left=0;right=0;bottom=0;fontSize=16;" parent="NqUrE6B0WoNYXSJN2qYD-1" vertex="1">
          <mxGeometry y="311" width="500" height="22" as="geometry" />
        </mxCell>
        <mxCell id="NqUrE6B0WoNYXSJN2qYD-55" value="Date" style="shape=partialRectangle;connectable=0;fillColor=none;top=0;left=0;bottom=0;right=0;align=left;spacingLeft=2;overflow=hidden;fontSize=16;" parent="NqUrE6B0WoNYXSJN2qYD-54" vertex="1">
          <mxGeometry width="90" height="22" as="geometry">
            <mxRectangle width="90" height="22" as="alternateBounds" />
          </mxGeometry>
        </mxCell>
        <mxCell id="NqUrE6B0WoNYXSJN2qYD-56" value="updated_at" style="shape=partialRectangle;connectable=0;fillColor=none;top=0;left=0;bottom=0;right=0;align=left;spacingLeft=2;overflow=hidden;fontSize=16;" parent="NqUrE6B0WoNYXSJN2qYD-54" vertex="1">
          <mxGeometry x="90" width="150" height="22" as="geometry">
            <mxRectangle width="150" height="22" as="alternateBounds" />
          </mxGeometry>
        </mxCell>
        <mxCell id="fLlnK0QQQw2lZY6XCiY6-25" style="shape=partialRectangle;connectable=0;fillColor=none;top=0;left=0;bottom=0;right=0;align=left;spacingLeft=2;overflow=hidden;fontSize=16;" vertex="1" parent="NqUrE6B0WoNYXSJN2qYD-54">
          <mxGeometry x="240" width="40" height="22" as="geometry">
            <mxRectangle width="40" height="22" as="alternateBounds" />
          </mxGeometry>
        </mxCell>
        <mxCell id="NqUrE6B0WoNYXSJN2qYD-57" value="最後更新時間" style="shape=partialRectangle;connectable=0;fillColor=none;top=0;left=0;bottom=0;right=0;align=left;spacingLeft=2;overflow=hidden;fontSize=16;" parent="NqUrE6B0WoNYXSJN2qYD-54" vertex="1">
          <mxGeometry x="280" width="220" height="22" as="geometry">
            <mxRectangle width="220" height="22" as="alternateBounds" />
          </mxGeometry>
        </mxCell>
        <mxCell id="NqUrE6B0WoNYXSJN2qYD-58" value="user_media_preferences" style="shape=table;startSize=25;container=1;collapsible=0;childLayout=tableLayout;fixedRows=1;rowLines=1;fontStyle=1;align=center;resizeLast=1;fontSize=16;" parent="1" vertex="1">
          <mxGeometry x="487.25" y="190" width="409.5" height="179" as="geometry" />
        </mxCell>
        <mxCell id="NqUrE6B0WoNYXSJN2qYD-59" style="shape=tableRow;horizontal=0;startSize=0;swimlaneHead=0;swimlaneBody=0;fillColor=none;collapsible=0;dropTarget=0;points=[[0,0.5],[1,0.5]];portConstraint=eastwest;top=0;left=0;right=0;bottom=0;fontSize=16;" parent="NqUrE6B0WoNYXSJN2qYD-58" vertex="1">
          <mxGeometry y="25" width="409.5" height="22" as="geometry" />
        </mxCell>
        <mxCell id="NqUrE6B0WoNYXSJN2qYD-60" value="ObjectId" style="shape=partialRectangle;connectable=0;fillColor=none;top=0;left=0;bottom=0;right=0;align=left;spacingLeft=2;overflow=hidden;fontSize=16;" parent="NqUrE6B0WoNYXSJN2qYD-59" vertex="1">
          <mxGeometry width="79.5" height="22" as="geometry">
            <mxRectangle width="79.5" height="22" as="alternateBounds" />
          </mxGeometry>
        </mxCell>
        <mxCell id="NqUrE6B0WoNYXSJN2qYD-61" value="_id" style="shape=partialRectangle;connectable=0;fillColor=none;top=0;left=0;bottom=0;right=0;align=left;spacingLeft=2;overflow=hidden;fontSize=16;" parent="NqUrE6B0WoNYXSJN2qYD-59" vertex="1">
          <mxGeometry x="79.5" width="150" height="22" as="geometry">
            <mxRectangle width="150" height="22" as="alternateBounds" />
          </mxGeometry>
        </mxCell>
        <mxCell id="fLlnK0QQQw2lZY6XCiY6-1" value="PK" style="shape=partialRectangle;connectable=0;fillColor=none;top=0;left=0;bottom=0;right=0;align=left;spacingLeft=2;overflow=hidden;fontSize=16;" vertex="1" parent="NqUrE6B0WoNYXSJN2qYD-59">
          <mxGeometry x="229.5" width="30" height="22" as="geometry">
            <mxRectangle width="30" height="22" as="alternateBounds" />
          </mxGeometry>
        </mxCell>
        <mxCell id="NqUrE6B0WoNYXSJN2qYD-62" value="MongoDB預設主鍵" style="shape=partialRectangle;connectable=0;fillColor=none;top=0;left=0;bottom=0;right=0;align=left;spacingLeft=2;overflow=hidden;fontSize=16;" parent="NqUrE6B0WoNYXSJN2qYD-59" vertex="1">
          <mxGeometry x="259.5" width="150" height="22" as="geometry">
            <mxRectangle width="150" height="22" as="alternateBounds" />
          </mxGeometry>
        </mxCell>
        <mxCell id="NqUrE6B0WoNYXSJN2qYD-63" style="shape=tableRow;horizontal=0;startSize=0;swimlaneHead=0;swimlaneBody=0;fillColor=none;collapsible=0;dropTarget=0;points=[[0,0.5],[1,0.5]];portConstraint=eastwest;top=0;left=0;right=0;bottom=0;fontSize=16;" parent="NqUrE6B0WoNYXSJN2qYD-58" vertex="1">
          <mxGeometry y="47" width="409.5" height="22" as="geometry" />
        </mxCell>
        <mxCell id="NqUrE6B0WoNYXSJN2qYD-64" value="UUID" style="shape=partialRectangle;connectable=0;fillColor=none;top=0;left=0;bottom=0;right=0;align=left;spacingLeft=2;overflow=hidden;fontSize=16;" parent="NqUrE6B0WoNYXSJN2qYD-63" vertex="1">
          <mxGeometry width="79.5" height="22" as="geometry">
            <mxRectangle width="79.5" height="22" as="alternateBounds" />
          </mxGeometry>
        </mxCell>
        <mxCell id="NqUrE6B0WoNYXSJN2qYD-65" value="user_id" style="shape=partialRectangle;connectable=0;fillColor=none;top=0;left=0;bottom=0;right=0;align=left;spacingLeft=2;overflow=hidden;fontSize=16;" parent="NqUrE6B0WoNYXSJN2qYD-63" vertex="1">
          <mxGeometry x="79.5" width="150" height="22" as="geometry">
            <mxRectangle width="150" height="22" as="alternateBounds" />
          </mxGeometry>
        </mxCell>
        <mxCell id="fLlnK0QQQw2lZY6XCiY6-2" value="UK" style="shape=partialRectangle;connectable=0;fillColor=none;top=0;left=0;bottom=0;right=0;align=left;spacingLeft=2;overflow=hidden;fontSize=16;" vertex="1" parent="NqUrE6B0WoNYXSJN2qYD-63">
          <mxGeometry x="229.5" width="30" height="22" as="geometry">
            <mxRectangle width="30" height="22" as="alternateBounds" />
          </mxGeometry>
        </mxCell>
        <mxCell id="NqUrE6B0WoNYXSJN2qYD-66" value="關聯用戶ID" style="shape=partialRectangle;connectable=0;fillColor=none;top=0;left=0;bottom=0;right=0;align=left;spacingLeft=2;overflow=hidden;fontSize=16;" parent="NqUrE6B0WoNYXSJN2qYD-63" vertex="1">
          <mxGeometry x="259.5" width="150" height="22" as="geometry">
            <mxRectangle width="150" height="22" as="alternateBounds" />
          </mxGeometry>
        </mxCell>
        <mxCell id="NqUrE6B0WoNYXSJN2qYD-67" style="shape=tableRow;horizontal=0;startSize=0;swimlaneHead=0;swimlaneBody=0;fillColor=none;collapsible=0;dropTarget=0;points=[[0,0.5],[1,0.5]];portConstraint=eastwest;top=0;left=0;right=0;bottom=0;fontSize=16;" parent="NqUrE6B0WoNYXSJN2qYD-58" vertex="1">
          <mxGeometry y="69" width="409.5" height="22" as="geometry" />
        </mxCell>
        <mxCell id="NqUrE6B0WoNYXSJN2qYD-68" value="Object" style="shape=partialRectangle;connectable=0;fillColor=none;top=0;left=0;bottom=0;right=0;align=left;spacingLeft=2;overflow=hidden;fontSize=16;" parent="NqUrE6B0WoNYXSJN2qYD-67" vertex="1">
          <mxGeometry width="79.5" height="22" as="geometry">
            <mxRectangle width="79.5" height="22" as="alternateBounds" />
          </mxGeometry>
        </mxCell>
        <mxCell id="NqUrE6B0WoNYXSJN2qYD-69" value="audio_preferences" style="shape=partialRectangle;connectable=0;fillColor=none;top=0;left=0;bottom=0;right=0;align=left;spacingLeft=2;overflow=hidden;fontSize=16;" parent="NqUrE6B0WoNYXSJN2qYD-67" vertex="1">
          <mxGeometry x="79.5" width="150" height="22" as="geometry">
            <mxRectangle width="150" height="22" as="alternateBounds" />
          </mxGeometry>
        </mxCell>
        <mxCell id="fLlnK0QQQw2lZY6XCiY6-3" style="shape=partialRectangle;connectable=0;fillColor=none;top=0;left=0;bottom=0;right=0;align=left;spacingLeft=2;overflow=hidden;fontSize=16;" vertex="1" parent="NqUrE6B0WoNYXSJN2qYD-67">
          <mxGeometry x="229.5" width="30" height="22" as="geometry">
            <mxRectangle width="30" height="22" as="alternateBounds" />
          </mxGeometry>
        </mxCell>
        <mxCell id="NqUrE6B0WoNYXSJN2qYD-70" value="音頻偏好物件" style="shape=partialRectangle;connectable=0;fillColor=none;top=0;left=0;bottom=0;right=0;align=left;spacingLeft=2;overflow=hidden;fontSize=16;" parent="NqUrE6B0WoNYXSJN2qYD-67" vertex="1">
          <mxGeometry x="259.5" width="150" height="22" as="geometry">
            <mxRectangle width="150" height="22" as="alternateBounds" />
          </mxGeometry>
        </mxCell>
        <mxCell id="NqUrE6B0WoNYXSJN2qYD-71" style="shape=tableRow;horizontal=0;startSize=0;swimlaneHead=0;swimlaneBody=0;fillColor=none;collapsible=0;dropTarget=0;points=[[0,0.5],[1,0.5]];portConstraint=eastwest;top=0;left=0;right=0;bottom=0;fontSize=16;" parent="NqUrE6B0WoNYXSJN2qYD-58" vertex="1">
          <mxGeometry y="91" width="409.5" height="22" as="geometry" />
        </mxCell>
        <mxCell id="NqUrE6B0WoNYXSJN2qYD-72" value="Array" style="shape=partialRectangle;connectable=0;fillColor=none;top=0;left=0;bottom=0;right=0;align=left;spacingLeft=2;overflow=hidden;fontSize=16;" parent="NqUrE6B0WoNYXSJN2qYD-71" vertex="1">
          <mxGeometry width="79.5" height="22" as="geometry">
            <mxRectangle width="79.5" height="22" as="alternateBounds" />
          </mxGeometry>
        </mxCell>
        <mxCell id="NqUrE6B0WoNYXSJN2qYD-73" value="playback_history" style="shape=partialRectangle;connectable=0;fillColor=none;top=0;left=0;bottom=0;right=0;align=left;spacingLeft=2;overflow=hidden;fontSize=16;" parent="NqUrE6B0WoNYXSJN2qYD-71" vertex="1">
          <mxGeometry x="79.5" width="150" height="22" as="geometry">
            <mxRectangle width="150" height="22" as="alternateBounds" />
          </mxGeometry>
        </mxCell>
        <mxCell id="fLlnK0QQQw2lZY6XCiY6-4" style="shape=partialRectangle;connectable=0;fillColor=none;top=0;left=0;bottom=0;right=0;align=left;spacingLeft=2;overflow=hidden;fontSize=16;" vertex="1" parent="NqUrE6B0WoNYXSJN2qYD-71">
          <mxGeometry x="229.5" width="30" height="22" as="geometry">
            <mxRectangle width="30" height="22" as="alternateBounds" />
          </mxGeometry>
        </mxCell>
        <mxCell id="NqUrE6B0WoNYXSJN2qYD-74" value="播放歷史陣列" style="shape=partialRectangle;connectable=0;fillColor=none;top=0;left=0;bottom=0;right=0;align=left;spacingLeft=2;overflow=hidden;fontSize=16;" parent="NqUrE6B0WoNYXSJN2qYD-71" vertex="1">
          <mxGeometry x="259.5" width="150" height="22" as="geometry">
            <mxRectangle width="150" height="22" as="alternateBounds" />
          </mxGeometry>
        </mxCell>
        <mxCell id="NqUrE6B0WoNYXSJN2qYD-75" style="shape=tableRow;horizontal=0;startSize=0;swimlaneHead=0;swimlaneBody=0;fillColor=none;collapsible=0;dropTarget=0;points=[[0,0.5],[1,0.5]];portConstraint=eastwest;top=0;left=0;right=0;bottom=0;fontSize=16;" parent="NqUrE6B0WoNYXSJN2qYD-58" vertex="1">
          <mxGeometry y="113" width="409.5" height="22" as="geometry" />
        </mxCell>
        <mxCell id="NqUrE6B0WoNYXSJN2qYD-76" value="Array" style="shape=partialRectangle;connectable=0;fillColor=none;top=0;left=0;bottom=0;right=0;align=left;spacingLeft=2;overflow=hidden;fontSize=16;" parent="NqUrE6B0WoNYXSJN2qYD-75" vertex="1">
          <mxGeometry width="79.5" height="22" as="geometry">
            <mxRectangle width="79.5" height="22" as="alternateBounds" />
          </mxGeometry>
        </mxCell>
        <mxCell id="NqUrE6B0WoNYXSJN2qYD-77" value="bookmarks" style="shape=partialRectangle;connectable=0;fillColor=none;top=0;left=0;bottom=0;right=0;align=left;spacingLeft=2;overflow=hidden;fontSize=16;" parent="NqUrE6B0WoNYXSJN2qYD-75" vertex="1">
          <mxGeometry x="79.5" width="150" height="22" as="geometry">
            <mxRectangle width="150" height="22" as="alternateBounds" />
          </mxGeometry>
        </mxCell>
        <mxCell id="fLlnK0QQQw2lZY6XCiY6-5" style="shape=partialRectangle;connectable=0;fillColor=none;top=0;left=0;bottom=0;right=0;align=left;spacingLeft=2;overflow=hidden;fontSize=16;" vertex="1" parent="NqUrE6B0WoNYXSJN2qYD-75">
          <mxGeometry x="229.5" width="30" height="22" as="geometry">
            <mxRectangle width="30" height="22" as="alternateBounds" />
          </mxGeometry>
        </mxCell>
        <mxCell id="NqUrE6B0WoNYXSJN2qYD-78" value="書籤陣列" style="shape=partialRectangle;connectable=0;fillColor=none;top=0;left=0;bottom=0;right=0;align=left;spacingLeft=2;overflow=hidden;fontSize=16;" parent="NqUrE6B0WoNYXSJN2qYD-75" vertex="1">
          <mxGeometry x="259.5" width="150" height="22" as="geometry">
            <mxRectangle width="150" height="22" as="alternateBounds" />
          </mxGeometry>
        </mxCell>
        <mxCell id="NqUrE6B0WoNYXSJN2qYD-79" style="shape=tableRow;horizontal=0;startSize=0;swimlaneHead=0;swimlaneBody=0;fillColor=none;collapsible=0;dropTarget=0;points=[[0,0.5],[1,0.5]];portConstraint=eastwest;top=0;left=0;right=0;bottom=0;fontSize=16;" parent="NqUrE6B0WoNYXSJN2qYD-58" vertex="1">
          <mxGeometry y="135" width="409.5" height="22" as="geometry" />
        </mxCell>
        <mxCell id="NqUrE6B0WoNYXSJN2qYD-80" value="Date" style="shape=partialRectangle;connectable=0;fillColor=none;top=0;left=0;bottom=0;right=0;align=left;spacingLeft=2;overflow=hidden;fontSize=16;" parent="NqUrE6B0WoNYXSJN2qYD-79" vertex="1">
          <mxGeometry width="79.5" height="22" as="geometry">
            <mxRectangle width="79.5" height="22" as="alternateBounds" />
          </mxGeometry>
        </mxCell>
        <mxCell id="NqUrE6B0WoNYXSJN2qYD-81" value="created_at" style="shape=partialRectangle;connectable=0;fillColor=none;top=0;left=0;bottom=0;right=0;align=left;spacingLeft=2;overflow=hidden;fontSize=16;" parent="NqUrE6B0WoNYXSJN2qYD-79" vertex="1">
          <mxGeometry x="79.5" width="150" height="22" as="geometry">
            <mxRectangle width="150" height="22" as="alternateBounds" />
          </mxGeometry>
        </mxCell>
        <mxCell id="fLlnK0QQQw2lZY6XCiY6-6" style="shape=partialRectangle;connectable=0;fillColor=none;top=0;left=0;bottom=0;right=0;align=left;spacingLeft=2;overflow=hidden;fontSize=16;" vertex="1" parent="NqUrE6B0WoNYXSJN2qYD-79">
          <mxGeometry x="229.5" width="30" height="22" as="geometry">
            <mxRectangle width="30" height="22" as="alternateBounds" />
          </mxGeometry>
        </mxCell>
        <mxCell id="NqUrE6B0WoNYXSJN2qYD-82" value="創建時間" style="shape=partialRectangle;connectable=0;fillColor=none;top=0;left=0;bottom=0;right=0;align=left;spacingLeft=2;overflow=hidden;fontSize=16;" parent="NqUrE6B0WoNYXSJN2qYD-79" vertex="1">
          <mxGeometry x="259.5" width="150" height="22" as="geometry">
            <mxRectangle width="150" height="22" as="alternateBounds" />
          </mxGeometry>
        </mxCell>
        <mxCell id="NqUrE6B0WoNYXSJN2qYD-83" style="shape=tableRow;horizontal=0;startSize=0;swimlaneHead=0;swimlaneBody=0;fillColor=none;collapsible=0;dropTarget=0;points=[[0,0.5],[1,0.5]];portConstraint=eastwest;top=0;left=0;right=0;bottom=0;fontSize=16;" parent="NqUrE6B0WoNYXSJN2qYD-58" vertex="1">
          <mxGeometry y="157" width="409.5" height="22" as="geometry" />
        </mxCell>
        <mxCell id="NqUrE6B0WoNYXSJN2qYD-84" value="Date" style="shape=partialRectangle;connectable=0;fillColor=none;top=0;left=0;bottom=0;right=0;align=left;spacingLeft=2;overflow=hidden;fontSize=16;" parent="NqUrE6B0WoNYXSJN2qYD-83" vertex="1">
          <mxGeometry width="79.5" height="22" as="geometry">
            <mxRectangle width="79.5" height="22" as="alternateBounds" />
          </mxGeometry>
        </mxCell>
        <mxCell id="NqUrE6B0WoNYXSJN2qYD-85" value="updated_at" style="shape=partialRectangle;connectable=0;fillColor=none;top=0;left=0;bottom=0;right=0;align=left;spacingLeft=2;overflow=hidden;fontSize=16;" parent="NqUrE6B0WoNYXSJN2qYD-83" vertex="1">
          <mxGeometry x="79.5" width="150" height="22" as="geometry">
            <mxRectangle width="150" height="22" as="alternateBounds" />
          </mxGeometry>
        </mxCell>
        <mxCell id="fLlnK0QQQw2lZY6XCiY6-7" style="shape=partialRectangle;connectable=0;fillColor=none;top=0;left=0;bottom=0;right=0;align=left;spacingLeft=2;overflow=hidden;fontSize=16;" vertex="1" parent="NqUrE6B0WoNYXSJN2qYD-83">
          <mxGeometry x="229.5" width="30" height="22" as="geometry">
            <mxRectangle width="30" height="22" as="alternateBounds" />
          </mxGeometry>
        </mxCell>
        <mxCell id="NqUrE6B0WoNYXSJN2qYD-86" value="最後更新時間" style="shape=partialRectangle;connectable=0;fillColor=none;top=0;left=0;bottom=0;right=0;align=left;spacingLeft=2;overflow=hidden;fontSize=16;" parent="NqUrE6B0WoNYXSJN2qYD-83" vertex="1">
          <mxGeometry x="259.5" width="150" height="22" as="geometry">
            <mxRectangle width="150" height="22" as="alternateBounds" />
          </mxGeometry>
        </mxCell>
        <mxCell id="fLlnK0QQQw2lZY6XCiY6-26" style="edgeStyle=orthogonalEdgeStyle;rounded=0;orthogonalLoop=1;jettySize=auto;html=1;entryX=0.5;entryY=0;entryDx=0;entryDy=0;endArrow=ERzeroToOne;endFill=0;startArrow=ERmandOne;startFill=0;strokeWidth=2;endSize=10;startSize=10;" edge="1" parent="1" source="NqUrE6B0WoNYXSJN2qYD-87" target="NqUrE6B0WoNYXSJN2qYD-58">
          <mxGeometry relative="1" as="geometry">
            <mxPoint x="691.9949999999999" y="120" as="targetPoint" />
          </mxGeometry>
        </mxCell>
        <mxCell id="fLlnK0QQQw2lZY6XCiY6-27" value="&lt;font style=&quot;font-size: 17px;&quot;&gt;has&lt;/font&gt;" style="edgeLabel;html=1;align=center;verticalAlign=middle;resizable=0;points=[];" vertex="1" connectable="0" parent="fLlnK0QQQw2lZY6XCiY6-26">
          <mxGeometry x="0.0615" y="-1" relative="1" as="geometry">
            <mxPoint as="offset" />
          </mxGeometry>
        </mxCell>
        <mxCell id="NqUrE6B0WoNYXSJN2qYD-87" value="Users" style="shape=table;startSize=25;container=1;collapsible=0;childLayout=tableLayout;fixedRows=1;rowLines=1;fontStyle=1;align=center;resizeLast=1;fontSize=16;" parent="1" vertex="1">
          <mxGeometry x="523.88" y="40" width="336.25" height="46" as="geometry" />
        </mxCell>
        <mxCell id="NqUrE6B0WoNYXSJN2qYD-88" style="shape=tableRow;horizontal=0;startSize=0;swimlaneHead=0;swimlaneBody=0;fillColor=none;collapsible=0;dropTarget=0;points=[[0,0.5],[1,0.5]];portConstraint=eastwest;top=0;left=0;right=0;bottom=0;fontSize=16;" parent="NqUrE6B0WoNYXSJN2qYD-87" vertex="1">
          <mxGeometry y="25" width="336.25" height="21" as="geometry" />
        </mxCell>
        <mxCell id="NqUrE6B0WoNYXSJN2qYD-89" value="UUID" style="shape=partialRectangle;connectable=0;fillColor=none;top=0;left=0;bottom=0;right=0;align=left;spacingLeft=2;overflow=hidden;fontSize=16;" parent="NqUrE6B0WoNYXSJN2qYD-88" vertex="1">
          <mxGeometry width="56.25" height="21" as="geometry">
            <mxRectangle width="56.25" height="21" as="alternateBounds" />
          </mxGeometry>
        </mxCell>
        <mxCell id="NqUrE6B0WoNYXSJN2qYD-90" value="user_id" style="shape=partialRectangle;connectable=0;fillColor=none;top=0;left=0;bottom=0;right=0;align=left;spacingLeft=2;overflow=hidden;fontSize=16;" parent="NqUrE6B0WoNYXSJN2qYD-88" vertex="1">
          <mxGeometry x="56.25" width="89.75" height="21" as="geometry">
            <mxRectangle width="89.75" height="21" as="alternateBounds" />
          </mxGeometry>
        </mxCell>
        <mxCell id="fLlnK0QQQw2lZY6XCiY6-9" value="PK" style="shape=partialRectangle;connectable=0;fillColor=none;top=0;left=0;bottom=0;right=0;align=left;spacingLeft=2;overflow=hidden;fontSize=16;" vertex="1" parent="NqUrE6B0WoNYXSJN2qYD-88">
          <mxGeometry x="146" width="30.25" height="21" as="geometry">
            <mxRectangle width="30.25" height="21" as="alternateBounds" />
          </mxGeometry>
        </mxCell>
        <mxCell id="NqUrE6B0WoNYXSJN2qYD-91" value="外部用戶基本資料庫" style="shape=partialRectangle;connectable=0;fillColor=none;top=0;left=0;bottom=0;right=0;align=left;spacingLeft=2;overflow=hidden;fontSize=16;" parent="NqUrE6B0WoNYXSJN2qYD-88" vertex="1">
          <mxGeometry x="176.25" width="160" height="21" as="geometry">
            <mxRectangle width="160" height="21" as="alternateBounds" />
          </mxGeometry>
        </mxCell>
        <mxCell id="fLlnK0QQQw2lZY6XCiY6-31" style="edgeStyle=orthogonalEdgeStyle;rounded=0;orthogonalLoop=1;jettySize=auto;html=1;exitX=0;exitY=0.5;exitDx=0;exitDy=0;entryX=1;entryY=0.5;entryDx=0;entryDy=0;endArrow=ERzeroToMany;endFill=0;startArrow=ERmandOne;startFill=0;strokeWidth=2;endSize=10;startSize=10;" edge="1" parent="1" source="NqUrE6B0WoNYXSJN2qYD-92" target="NqUrE6B0WoNYXSJN2qYD-34">
          <mxGeometry relative="1" as="geometry" />
        </mxCell>
        <mxCell id="NqUrE6B0WoNYXSJN2qYD-92" value="Chapters" style="shape=table;startSize=30;container=1;collapsible=0;childLayout=tableLayout;fixedRows=1;rowLines=1;fontStyle=1;align=center;resizeLast=1;fontSize=16;" parent="1" vertex="1">
          <mxGeometry x="530" y="470" width="324" height="51" as="geometry" />
        </mxCell>
        <mxCell id="NqUrE6B0WoNYXSJN2qYD-93" style="shape=tableRow;horizontal=0;startSize=0;swimlaneHead=0;swimlaneBody=0;fillColor=none;collapsible=0;dropTarget=0;points=[[0,0.5],[1,0.5]];portConstraint=eastwest;top=0;left=0;right=0;bottom=0;fontSize=16;" parent="NqUrE6B0WoNYXSJN2qYD-92" vertex="1">
          <mxGeometry y="30" width="324" height="21" as="geometry" />
        </mxCell>
        <mxCell id="NqUrE6B0WoNYXSJN2qYD-94" value="UUID" style="shape=partialRectangle;connectable=0;fillColor=none;top=0;left=0;bottom=0;right=0;align=left;spacingLeft=2;overflow=hidden;fontSize=16;" parent="NqUrE6B0WoNYXSJN2qYD-93" vertex="1">
          <mxGeometry width="56.5" height="21" as="geometry">
            <mxRectangle width="56.5" height="21" as="alternateBounds" />
          </mxGeometry>
        </mxCell>
        <mxCell id="NqUrE6B0WoNYXSJN2qYD-95" value="chapter_id" style="shape=partialRectangle;connectable=0;fillColor=none;top=0;left=0;bottom=0;right=0;align=left;spacingLeft=2;overflow=hidden;fontSize=16;" parent="NqUrE6B0WoNYXSJN2qYD-93" vertex="1">
          <mxGeometry x="56.5" width="96.5" height="21" as="geometry">
            <mxRectangle width="96.5" height="21" as="alternateBounds" />
          </mxGeometry>
        </mxCell>
        <mxCell id="fLlnK0QQQw2lZY6XCiY6-8" value="PK" style="shape=partialRectangle;connectable=0;fillColor=none;top=0;left=0;bottom=0;right=0;align=left;spacingLeft=2;overflow=hidden;fontSize=16;" vertex="1" parent="NqUrE6B0WoNYXSJN2qYD-93">
          <mxGeometry x="153" width="43.5" height="21" as="geometry">
            <mxRectangle width="43.5" height="21" as="alternateBounds" />
          </mxGeometry>
        </mxCell>
        <mxCell id="NqUrE6B0WoNYXSJN2qYD-96" value="外部紅學知識庫" style="shape=partialRectangle;connectable=0;fillColor=none;top=0;left=0;bottom=0;right=0;align=left;spacingLeft=2;overflow=hidden;fontSize=16;" parent="NqUrE6B0WoNYXSJN2qYD-93" vertex="1">
          <mxGeometry x="196.5" width="127.5" height="21" as="geometry">
            <mxRectangle width="127.5" height="21" as="alternateBounds" />
          </mxGeometry>
        </mxCell>
        <mxCell id="NqUrE6B0WoNYXSJN2qYD-97" value="Characters" style="shape=table;startSize=25;container=1;collapsible=0;childLayout=tableLayout;fixedRows=1;rowLines=1;fontStyle=1;align=center;resizeLast=1;fontSize=16;" parent="1" vertex="1">
          <mxGeometry x="520.5" y="630" width="343" height="46" as="geometry" />
        </mxCell>
        <mxCell id="NqUrE6B0WoNYXSJN2qYD-98" style="shape=tableRow;horizontal=0;startSize=0;swimlaneHead=0;swimlaneBody=0;fillColor=none;collapsible=0;dropTarget=0;points=[[0,0.5],[1,0.5]];portConstraint=eastwest;top=0;left=0;right=0;bottom=0;fontSize=16;" parent="NqUrE6B0WoNYXSJN2qYD-97" vertex="1">
          <mxGeometry y="25" width="343" height="21" as="geometry" />
        </mxCell>
        <mxCell id="NqUrE6B0WoNYXSJN2qYD-99" value="UUID" style="shape=partialRectangle;connectable=0;fillColor=none;top=0;left=0;bottom=0;right=0;align=left;spacingLeft=2;overflow=hidden;fontSize=16;" parent="NqUrE6B0WoNYXSJN2qYD-98" vertex="1">
          <mxGeometry width="57" height="21" as="geometry">
            <mxRectangle width="57" height="21" as="alternateBounds" />
          </mxGeometry>
        </mxCell>
        <mxCell id="NqUrE6B0WoNYXSJN2qYD-100" value="character_id" style="shape=partialRectangle;connectable=0;fillColor=none;top=0;left=0;bottom=0;right=0;align=left;spacingLeft=2;overflow=hidden;fontSize=16;" parent="NqUrE6B0WoNYXSJN2qYD-98" vertex="1">
          <mxGeometry x="57" width="100" height="21" as="geometry">
            <mxRectangle width="100" height="21" as="alternateBounds" />
          </mxGeometry>
        </mxCell>
        <mxCell id="fLlnK0QQQw2lZY6XCiY6-10" value="PK" style="shape=partialRectangle;connectable=0;fillColor=none;top=0;left=0;bottom=0;right=0;align=left;spacingLeft=2;overflow=hidden;fontSize=16;" vertex="1" parent="NqUrE6B0WoNYXSJN2qYD-98">
          <mxGeometry x="157" width="30" height="21" as="geometry">
            <mxRectangle width="30" height="21" as="alternateBounds" />
          </mxGeometry>
        </mxCell>
        <mxCell id="NqUrE6B0WoNYXSJN2qYD-101" value="外部人物關係知識庫" style="shape=partialRectangle;connectable=0;fillColor=none;top=0;left=0;bottom=0;right=0;align=left;spacingLeft=2;overflow=hidden;fontSize=16;" parent="NqUrE6B0WoNYXSJN2qYD-98" vertex="1">
          <mxGeometry x="187" width="156" height="21" as="geometry">
            <mxRectangle width="156" height="21" as="alternateBounds" />
          </mxGeometry>
        </mxCell>
        <mxCell id="NqUrE6B0WoNYXSJN2qYD-102" value="Expert_Commentaries" style="shape=table;startSize=20;container=1;collapsible=0;childLayout=tableLayout;fixedRows=1;rowLines=1;fontStyle=1;align=center;resizeLast=1;fontSize=16;" parent="1" vertex="1">
          <mxGeometry x="520.5" y="790" width="327" height="46" as="geometry" />
        </mxCell>
        <mxCell id="NqUrE6B0WoNYXSJN2qYD-103" style="shape=tableRow;horizontal=0;startSize=0;swimlaneHead=0;swimlaneBody=0;fillColor=none;collapsible=0;dropTarget=0;points=[[0,0.5],[1,0.5]];portConstraint=eastwest;top=0;left=0;right=0;bottom=0;fontSize=16;" parent="NqUrE6B0WoNYXSJN2qYD-102" vertex="1">
          <mxGeometry y="20" width="327" height="21" as="geometry" />
        </mxCell>
        <mxCell id="NqUrE6B0WoNYXSJN2qYD-104" value="UUID" style="shape=partialRectangle;connectable=0;fillColor=none;top=0;left=0;bottom=0;right=0;align=left;spacingLeft=2;overflow=hidden;fontSize=16;" parent="NqUrE6B0WoNYXSJN2qYD-103" vertex="1">
          <mxGeometry width="47" height="21" as="geometry">
            <mxRectangle width="47" height="21" as="alternateBounds" />
          </mxGeometry>
        </mxCell>
        <mxCell id="NqUrE6B0WoNYXSJN2qYD-105" value="commentary_id" style="shape=partialRectangle;connectable=0;fillColor=none;top=0;left=0;bottom=0;right=0;align=left;spacingLeft=2;overflow=hidden;fontSize=16;" parent="NqUrE6B0WoNYXSJN2qYD-103" vertex="1">
          <mxGeometry x="47" width="128" height="21" as="geometry">
            <mxRectangle width="128" height="21" as="alternateBounds" />
          </mxGeometry>
        </mxCell>
        <mxCell id="fLlnK0QQQw2lZY6XCiY6-11" value="PK" style="shape=partialRectangle;connectable=0;fillColor=none;top=0;left=0;bottom=0;right=0;align=left;spacingLeft=2;overflow=hidden;fontSize=16;" vertex="1" parent="NqUrE6B0WoNYXSJN2qYD-103">
          <mxGeometry x="175" width="32" height="21" as="geometry">
            <mxRectangle width="32" height="21" as="alternateBounds" />
          </mxGeometry>
        </mxCell>
        <mxCell id="NqUrE6B0WoNYXSJN2qYD-106" value="外部紅學知識庫" style="shape=partialRectangle;connectable=0;fillColor=none;top=0;left=0;bottom=0;right=0;align=left;spacingLeft=2;overflow=hidden;fontSize=16;" parent="NqUrE6B0WoNYXSJN2qYD-103" vertex="1">
          <mxGeometry x="207" width="120" height="21" as="geometry">
            <mxRectangle width="120" height="21" as="alternateBounds" />
          </mxGeometry>
        </mxCell>
        <mxCell id="fLlnK0QQQw2lZY6XCiY6-28" style="edgeStyle=orthogonalEdgeStyle;rounded=0;orthogonalLoop=1;jettySize=auto;html=1;exitX=0;exitY=0.5;exitDx=0;exitDy=0;entryX=1;entryY=0.5;entryDx=0;entryDy=0;endArrow=ERzeroToMany;endFill=0;startArrow=ERmandOne;startFill=0;strokeWidth=2;endSize=10;startSize=10;" edge="1" parent="1" source="NqUrE6B0WoNYXSJN2qYD-71" target="NqUrE6B0WoNYXSJN2qYD-22">
          <mxGeometry relative="1" as="geometry" />
        </mxCell>
        <mxCell id="fLlnK0QQQw2lZY6XCiY6-29" value="&lt;div style=&quot;background-color: rgb(255, 255, 254); font-family: Consolas, &amp;quot;Courier New&amp;quot;, monospace; font-size: 14px; line-height: 19px; white-space-collapse: preserve;&quot;&gt;&lt;br&gt;&lt;/div&gt;" style="edgeLabel;html=1;align=center;verticalAlign=middle;resizable=0;points=[];" vertex="1" connectable="0" parent="fLlnK0QQQw2lZY6XCiY6-28">
          <mxGeometry x="0.0024" y="-2" relative="1" as="geometry">
            <mxPoint as="offset" />
          </mxGeometry>
        </mxCell>
        <mxCell id="fLlnK0QQQw2lZY6XCiY6-30" value="&lt;font style=&quot;font-size: 17px;&quot;&gt;references_via_&lt;br&gt;playback_history_and_&lt;br&gt;bookmarks&lt;/font&gt;" style="edgeLabel;html=1;align=center;verticalAlign=middle;resizable=0;points=[];" vertex="1" connectable="0" parent="1">
          <mxGeometry x="390" y="400.0018518518518" as="geometry" />
        </mxCell>
        <mxCell id="fLlnK0QQQw2lZY6XCiY6-32" value="&lt;span style=&quot;font-size: 17px;&quot;&gt;has_media_for&lt;/span&gt;" style="edgeLabel;html=1;align=center;verticalAlign=middle;resizable=0;points=[];" vertex="1" connectable="0" parent="1">
          <mxGeometry x="400" y="521.0018518518518" as="geometry" />
        </mxCell>
        <mxCell id="fLlnK0QQQw2lZY6XCiY6-33" style="edgeStyle=orthogonalEdgeStyle;rounded=0;orthogonalLoop=1;jettySize=auto;html=1;exitX=0;exitY=0.5;exitDx=0;exitDy=0;entryX=1;entryY=0.5;entryDx=0;entryDy=0;endArrow=ERzeroToMany;endFill=0;startArrow=ERmandOne;startFill=0;strokeWidth=2;endSize=10;startSize=10;" edge="1" parent="1" source="NqUrE6B0WoNYXSJN2qYD-97" target="NqUrE6B0WoNYXSJN2qYD-46">
          <mxGeometry relative="1" as="geometry">
            <mxPoint x="500" y="710" as="sourcePoint" />
            <mxPoint x="240" y="756" as="targetPoint" />
          </mxGeometry>
        </mxCell>
        <mxCell id="fLlnK0QQQw2lZY6XCiY6-34" value="&lt;span style=&quot;font-size: 17px;&quot;&gt;has_media_for&lt;/span&gt;" style="edgeLabel;html=1;align=center;verticalAlign=middle;resizable=0;points=[];" vertex="1" connectable="0" parent="1">
          <mxGeometry x="400" y="630.0018518518518" as="geometry" />
        </mxCell>
        <mxCell id="fLlnK0QQQw2lZY6XCiY6-35" style="edgeStyle=orthogonalEdgeStyle;rounded=0;orthogonalLoop=1;jettySize=auto;html=1;exitX=0;exitY=0.5;exitDx=0;exitDy=0;entryX=1;entryY=0.5;entryDx=0;entryDy=0;endArrow=ERzeroToMany;endFill=0;startArrow=ERmandOne;startFill=0;strokeWidth=2;endSize=10;startSize=10;" edge="1" parent="1" source="NqUrE6B0WoNYXSJN2qYD-103" target="NqUrE6B0WoNYXSJN2qYD-54">
          <mxGeometry relative="1" as="geometry">
            <mxPoint x="461" y="826" as="sourcePoint" />
            <mxPoint x="210" y="780" as="targetPoint" />
            <Array as="points">
              <mxPoint x="330" y="821" />
              <mxPoint x="330" y="651" />
            </Array>
          </mxGeometry>
        </mxCell>
        <mxCell id="fLlnK0QQQw2lZY6XCiY6-36" value="&lt;span style=&quot;font-size: 17px;&quot;&gt;has_media_for&lt;/span&gt;" style="edgeLabel;html=1;align=center;verticalAlign=middle;resizable=0;points=[];" vertex="1" connectable="0" parent="1">
          <mxGeometry x="340" y="720.0018518518518" as="geometry" />
        </mxCell>
        <mxCell id="fLlnK0QQQw2lZY6XCiY6-37" value="&lt;font style=&quot;font-size: 23px;&quot;&gt;DB: mediaDB ERD&lt;/font&gt;" style="edgeLabel;html=1;align=center;verticalAlign=middle;resizable=0;points=[];fontSize=23;fontStyle=1" vertex="1" connectable="0" parent="1">
          <mxGeometry x="270" y="63.001851851851825" as="geometry" />
        </mxCell>
      </root>
    </mxGraphModel>
  </diagram>
</mxfile>
